#!OML:ASF X:\für Bonn\!DataBase\2005_08_11_Bastian_Final\c3d\Bastian.ASF
:FULLY-SPECIFIED
:DEGREES
301
root -2.56947 2.44045 21.299 -978.24 -0.530257 -173.191
lowerback 61.0029 5.68925 12.6621
upperback 25.4844 -5.06303 5.45046
thorax 8.58702 -10.6987 0.869486
lowerneck -10.6926 7.73367 -5.93127
upperneck -0.830468 11.3325 8.03857
head 0.736086 6.02396 4.05715
rclavicle -1.55052e-014 3.10104e-014
rhumerus -53.3817 29.675 -104.084
rradius 37.5677
rwrist -15.9497
rhand -28.3332 -11.5301
rfingers 7.12502
rthumb -1.7077 -41.503
lclavicle -1.55052e-014 3.10104e-014
lhumerus -35.626 8.54436 72.9898
lradius 29.5988
lwrist 47.49
lhand -25.3696 -10.8293
lfingers 7.12502
lthumb 1.1546 19.1473
rfemur -48.6595 -2.57701 26.0058
rtibia 73.8305
rfoot 6.18359 -4.53961
rtoes -17.2306
lfemur -42.9229 9.92226 -16.2266
ltibia 73.6847
lfoot 10.5848 6.56923
ltoes 12.9337
302
root -2.56271 2.41111 21.2728 -978.422 -0.572582 -173.305
lowerback 60.8751 5.73134 12.5656
upperback 25.5167 -5.04037 5.40894
thorax 8.61371 -10.6783 0.847376
lowerneck -10.6231 7.71281 -5.92772
upperneck -0.763572 11.2938 8.13159
head 0.743687 6.0044 4.08626
rclavicle -2.50469e-014 -3.97569e-015
rhumerus -53.9243 29.3276 -104.001
rradius 38.1727
rwrist -15.4907
rhand -28.2808 -11.4665
rfingers 7.12502
rthumb -1.65716 -41.4398
lclavicle -2.50469e-014 -3.97569e-015
lhumerus -36.2116 8.10736 73.0193
lradius 30.3096
lwrist 47.8316
lhand -25.5224 -10.7803
lfingers 7.12502
lthumb 1.00702 19.1971
rfemur -47.6522 -2.03698 25.8904
rtibia 72.0156
rfoot 6.00695 -4.8852
rtoes -16.9826
lfemur -42.9012 10.008 -16.2793
ltibia 73.8139
lfoot 10.8851 6.6286
ltoes 13.8194
303
root -2.5565 2.3804 21.2504 -978.593 -0.570055 -173.396
lowerback 60.8237 5.72675 12.5453
upperback 25.5067 -5.01481 5.35344
thorax 8.59236 -10.6442 0.789638
lowerneck -10.5183 7.6978 -5.85454
upperneck -0.739607 11.2571 8.17495
head 0.73762 5.98451 4.08162
rclavicle 1.55052e-014 -2.22639e-014
rhumerus -54.4848 28.9378 -103.955
rradius 38.7734
rwrist -14.977
rhand -28.249 -11.3513
rfingers 7.12502
rthumb -1.62643 -41.3249
lclavicle 1.55052e-014 -2.22639e-014
lhumerus -36.7927 7.74383 72.9995
lradius 30.9911
lwrist 48.0472
lhand -25.6224 -10.6883
lfingers 7.12502
lthumb 0.910421 19.2895
rfemur -46.6418 -1.4335 25.8138
rtibia 70.2046
rfoot 5.76884 -5.25134
rtoes -16.9008
lfemur -42.882 10.055 -16.271
ltibia 73.9166
lfoot 11.2058 6.73765
ltoes 14.7025
304
root -2.55065 2.35081 21.232 -978.774 -0.603691 -173.525
lowerback 60.8497 5.75752 12.46
upperback 25.4749 -4.99022 5.32306
thorax 8.54137 -10.6328 0.795799
lowerneck -10.4355 7.68791 -5.85917
upperneck -0.680524 11.2313 8.21977
head 0.741588 5.96886 4.09455
rclavicle 1.78906e-014 7.95139e-015
rhumerus -55.0315 28.5867 -103.831
rradius 39.3619
rwrist -14.4751
rhand -28.2549 -11.2047
rfingers 7.12502
rthumb -1.63212 -41.1782
lclavicle 1.78906e-014 7.95139e-015
lhumerus -37.4149 7.37078 73.0519
lradius 31.7367
lwrist 48.3784
lhand -25.7538 -10.6067
lfingers 7.12502
lthumb 0.78355 19.3716
rfemur -45.6141 -0.788925 25.6894
rtibia 68.4264
rfoot 5.50366 -5.60982
rtoes -16.3229
lfemur -42.8179 10.1487 -16.3238
ltibia 73.9729
lfoot 11.5178 6.83714
ltoes 15.2737
305
root -2.54546 2.31916 21.2118 -978.918 -0.626236 -173.623
lowerback 60.8525 5.74065 12.4347
upperback 25.4412 -4.97634 5.26049
thorax 8.49015 -10.6049 0.744149
lowerneck -10.2916 7.67583 -5.77895
upperneck -0.70739 11.1988 8.21438
head 0.714787 5.94893 4.06728
rclavicle 5.96354e-015 1.43125e-014
rhumerus -55.5774 28.2041 -103.768
rradius 39.9709
rwrist -13.9732
rhand -28.2698 -11.0804
rfingers 7.12502
rthumb -1.64652 -41.0538
lclavicle 5.96354e-015 1.43125e-014
lhumerus -38.0083 7.03511 73.0413
lradius 32.4593
lwrist 48.6233
lhand -25.9184 -10.5082
lfingers 7.12502
lthumb 0.624587 19.4707
rfemur -44.6472 -0.127233 25.5793
rtibia 66.6806
rfoot 5.21861 -5.93934
rtoes -15.5706
lfemur -42.813 10.2077 -16.3584
ltibia 74.0278
lfoot 11.8462 6.91483
ltoes 15.8155
306
root -2.54136 2.28824 21.1898 -979.102 -0.661987 -173.742
lowerback 60.9176 5.72676 12.4104
upperback 25.3969 -4.96346 5.19366
thorax 8.42546 -10.5843 0.692432
lowerneck -10.1726 7.67175 -5.70765
upperneck -0.686033 11.1766 8.24801
head 0.704584 5.93553 4.0588
rclavicle -4.55217e-014 6.36111e-015
rhumerus -56.1385 27.8098 -103.709
rradius 40.5761
rwrist -13.4375
rhand -28.2597 -11.0329
rfingers 7.12502
rthumb -1.63671 -41.0064
lclavicle -4.55217e-014 6.36111e-015
lhumerus -38.6325 6.65601 73.0389
lradius 33.2065
lwrist 48.8686
lhand -26.0011 -10.4221
lfingers 7.12502
lthumb 0.544684 19.557
rfemur -43.6331 0.577996 25.4418
rtibia 64.966
rfoot 4.93892 -6.20652
rtoes -15.0608
lfemur -42.7456 10.2838 -16.403
ltibia 74.0712
lfoot 12.0996 7.00034
ltoes 16.4399
307
root -2.5386 2.25713 21.1652 -979.248 -0.680387 -173.858
lowerback 60.9594 5.71646 12.3755
upperback 25.3488 -4.9514 5.14518
thorax 8.35735 -10.5662 0.665374
lowerneck -10.0489 7.67244 -5.63442
upperneck -0.664857 11.1559 8.20724
head 0.697744 5.91925 4.02406
rclavicle -5.96354e-016 -1.47101e-014
rhumerus -56.7121 27.4636 -103.619
rradius 41.2204
rwrist -12.9865
rhand -28.2681 -10.9607
rfingers 7.12502
rthumb -1.64485 -40.9341
lclavicle -5.96354e-016 -1.47101e-014
lhumerus -39.2616 6.30443 73.0729
lradius 33.9735
lwrist 49.141
lhand -26.1758 -10.3085
lfingers 7.12502
lthumb 0.375963 19.6709
rfemur -42.6754 1.26156 25.3273
rtibia 63.3009
rfoot 4.66476 -6.44363
rtoes -14.7997
lfemur -42.7356 10.3548 -16.4474
ltibia 74.1291
lfoot 12.3645 7.06636
ltoes 16.8511
